<svg width="34" height="25" viewBox="0 0 34 25" fill="none" xmlns="http://www.w3.org/2000/svg">
<path opacity="0.7" d="M24.3371 2.15235C24.5348 -0.433705 20.1334 -0.849916 19.8169 1.78608C17.0653 2.14125 12.4153 3.26779 9.89529 6.8139C7.53353 10.1436 6.91202 14.622 6.78771 15.7375C3.95699 17.7464 1.45963 19.2558 0.3296 20.3158C-0.0462495 20.6706 -0.108209 21.2394 0.182697 21.6643C0.335318 21.8956 0.575381 22.0578 0.849921 22.1151C1.12446 22.1723 1.41091 22.12 1.64608 21.9695C1.78169 21.8807 3.07557 21.1371 6.42045 21.6032C12.4379 22.4412 11.127 25.4879 17.5682 24.9329C23.1618 24.4335 26.535 20.4934 27.3938 19.3835C28.4617 19.4334 29.5069 19.5 30.5579 19.6332C31.2716 19.7947 32.0203 19.7084 32.6767 19.389C33.2469 19.0246 33.6329 18.4397 33.7389 17.7797C33.9407 16.7038 34.026 15.61 33.9932 14.5166C33.9819 8.19017 30.3488 4.03917 24.3371 2.15235ZM13.0876 15.6986C13.4266 12.885 15.0482 4.12241 21.9414 2.76279C27.1847 5.66516 24.6365 15.5266 23.902 18.0072C19.6192 17.3967 15.342 16.1148 13.0876 15.6986ZM23.2014 1.82493C22.4945 1.60656 21.7444 1.55896 21.0148 1.68619C21.3255 0.848222 23.0432 0.97586 23.2014 1.84158V1.82493ZM10.8502 7.45209C12.5848 4.99923 15.568 3.82274 18.0202 3.25669C13.5001 6.45874 12.274 13.0682 11.9689 15.5599C10.6588 15.3801 9.33305 15.3374 8.0138 15.4322C8.2059 13.895 8.90087 10.1935 10.8502 7.45209ZM17.4665 23.8175C11.4999 24.3724 12.9464 21.3813 6.57866 20.4878C3.78749 20.0993 2.21675 20.4878 1.49353 20.793C2.71396 19.7886 5.08702 18.3346 7.56743 16.5754C12.839 15.7985 18.9638 18.9173 25.9926 19.3502C23.8364 21.8549 20.7854 23.4535 17.4665 23.8175ZM32.6315 17.541C32.3998 18.6176 31.8235 18.7009 30.7048 18.5566C28.2357 18.2403 26.8853 18.3402 25.0546 18.1459C26.3542 13.7063 27.3147 6.93044 24.3823 3.33994C28.4391 4.71065 31.5014 7.22457 32.5128 11.3978C32.9484 13.4196 32.9887 15.5044 32.6315 17.541Z" fill="black"/>
</svg>
