<svg width="27" height="28" viewBox="0 0 27 28" fill="none" xmlns="http://www.w3.org/2000/svg">
<path d="M27 7.37654C27 5.29791 26.2837 3.41524 24.9831 2.07529C23.6842 0.737041 21.8599 0 19.8463 0C17.1426 0 14.3529 1.27656 12.1925 3.50226C10.2076 5.54718 9.00071 8.14 8.81616 10.7098C8.76084 11.0773 8.70919 11.4676 8.65498 11.8801C8.34441 14.2417 7.96084 17.151 6.42591 18.9954C6.29105 19.018 6.16529 19.0835 6.06742 19.1853L0.497725 24.978C-0.165908 25.6682 -0.165908 26.7913 0.497725 27.4815C0.819231 27.8159 1.24666 28 1.70133 28C2.15599 28 2.58342 27.8158 2.90499 27.4814L8.47357 21.6875C8.57406 21.5829 8.63442 21.4528 8.65583 21.3173C10.4291 19.7199 13.2273 19.3208 15.4987 18.9977C15.9274 18.9367 16.3323 18.8791 16.7103 18.8162C16.8042 18.8005 16.8899 18.7644 16.9646 18.7136C19.338 18.438 21.7086 17.2175 23.598 15.2709C25.7601 13.0436 27 10.1662 27 7.37654ZM9.52379 14.8263C9.85007 15.5238 10.2808 16.1555 10.8075 16.698C11.3648 17.2723 12.0192 17.7355 12.7437 18.0776C11.0516 18.4343 9.28909 19.0188 7.93747 20.1673L7.53053 19.7441C8.61793 18.3598 9.1795 16.5613 9.52379 14.8263ZM1.97904 26.5186C1.90486 26.5958 1.8062 26.6383 1.70133 26.6383C1.59638 26.6383 1.49779 26.5958 1.42355 26.5186C1.27043 26.3594 1.27043 26.1002 1.42355 25.9409L6.53033 20.6297L7.08477 21.2063L1.97904 26.5186ZM15.9449 17.4115C15.9448 17.4115 15.9444 17.4115 15.9442 17.4115C14.2537 17.4113 12.7961 16.8301 11.7289 15.7306C10.6632 14.6326 10.0999 13.134 10.0999 11.3967C10.0999 11.22 10.1064 11.0426 10.118 10.8651C10.1195 10.8554 10.1209 10.845 10.1224 10.8353C10.1296 10.7886 10.132 10.7424 10.1301 10.697C10.318 8.48949 11.3819 6.25412 13.114 4.4697C15.0311 2.49457 17.485 1.36181 19.8463 1.36181C21.5366 1.36181 22.9943 1.94306 24.0617 3.0428C25.1274 4.14077 25.6907 5.63937 25.6907 7.37661C25.6906 9.8054 24.5921 12.3303 22.6766 14.3037C20.7594 16.2788 18.306 17.4116 15.9449 17.4115Z" fill="#4D4D4D"/>
</svg>
