<svg width="35" height="17" viewBox="0 0 35 17" fill="none" xmlns="http://www.w3.org/2000/svg">
<path opacity="0.7" d="M34.1047 8.88558C33.5832 8.35745 32.4913 8.00437 30.7657 7.80631C29.7577 7.69051 28.8519 7.66643 28.5558 7.66156C28.0722 7.46487 27.3897 7.16021 26.5526 6.75194C26.7024 6.54577 26.6858 6.25464 26.5018 6.06796C26.2986 5.86233 25.9696 5.86233 25.7667 6.06796L25.5742 6.26303C25.3208 6.13343 25.0577 5.99653 24.7851 5.85232L24.7939 5.84339C24.9969 5.63776 24.9969 5.30443 24.7939 5.09853C24.591 4.89291 24.2617 4.89291 24.0588 5.09853L23.8254 5.335C23.5744 5.19702 23.3175 5.05389 23.0548 4.90562L23.086 4.87397C23.2889 4.66834 23.2889 4.33501 23.086 4.12911C22.8831 3.92348 22.5538 3.92348 22.3509 4.12911L22.1167 4.36639C21.8692 4.22191 21.6176 4.07337 21.3626 3.92024L21.3781 3.90454C21.581 3.69892 21.581 3.36559 21.3781 3.15969C21.1751 2.95406 20.8462 2.95406 20.643 3.15969L20.4443 3.36126C19.3682 2.6954 18.2402 1.96164 17.0872 1.16159C16.8797 1.00331 15.257 -0.195818 14.0495 0.0276663C13.6436 0.102882 13.3144 0.327449 13.097 0.677285C12.3002 1.95921 12.2989 2.96894 13.1312 4.03847C12.3509 4.52386 11.5512 4.86774 10.8572 4.86774C9.63444 4.86774 8.99144 3.68214 8.42427 2.63642C7.9559 1.77306 7.5137 0.957587 6.72223 0.957587C6.59218 0.957587 6.45814 0.965704 6.32409 0.981667C4.94542 1.144 3.71922 2.05769 3.12375 3.3664C2.62708 4.4592 1.93948 6.07851 1.485 7.58797C0.958684 9.33499 0.86015 10.5125 1.18406 11.2462L0.0398387 14.0368C-0.0458774 14.246 0.00966448 14.487 0.178159 14.6358C0.287107 14.7324 2.91921 17 8.78956 17H27.4426C31.2376 17 34.1327 15.3204 34.3364 13.0522C34.6897 12.7043 34.9215 12.167 34.9832 11.5319C35.0804 10.5314 34.7519 9.54197 34.1047 8.88558ZM32.4699 9.19484C31.7356 9.48163 30.7449 9.86015 29.8926 10.1564C29.3435 10.3472 27.6728 10.9275 26.9109 10.4865C26.858 10.4559 26.7972 10.4143 26.7371 10.3512C28.1892 10.1423 29.0068 9.73677 29.2285 9.11854C29.2666 9.01194 29.2925 8.88369 29.2869 8.7384C30.3711 8.79386 31.6162 8.94348 32.4699 9.19484ZM19.3105 5.25465C19.412 5.35746 19.5449 5.40887 19.6782 5.40887C19.8112 5.40887 19.9441 5.35746 20.0456 5.25465L20.6034 4.68971C20.8584 4.84366 21.1092 4.99328 21.3554 5.13804L21.0184 5.47921C20.8155 5.68484 20.8155 6.01844 21.0184 6.22407C21.1199 6.32688 21.2531 6.37829 21.3861 6.37829C21.5191 6.37829 21.6521 6.32688 21.7538 6.22407L22.2913 5.67943C22.5543 5.82878 22.8107 5.97245 23.0601 6.11043L22.7263 6.44864C22.5234 6.65426 22.5234 6.98787 22.7263 7.19349C22.8281 7.29631 22.961 7.34771 23.094 7.34771C23.227 7.34771 23.36 7.29631 23.4617 7.19349L24.0177 6.63018C24.2908 6.77574 24.5533 6.91346 24.8046 7.04306L24.4345 7.41806C24.2316 7.62369 24.2316 7.95729 24.4345 8.16291C24.536 8.26573 24.6692 8.31713 24.8022 8.31713C24.9352 8.31713 25.0682 8.26573 25.1696 8.16291L25.7857 7.53873C27.0268 8.15155 27.8631 8.51059 28.1513 8.63126C28.2076 8.69781 28.2338 8.7457 28.2437 8.7706C28.1515 8.89803 27.5809 9.23596 25.9264 9.38504C23.9295 9.56496 21.3773 11.6691 20.7874 13.1483C19.2395 12.9865 17.5067 12.7844 15.7347 12.566C15.5467 11.6986 14.8386 10.8531 13.5942 10.016L19.1284 3.77603C19.3166 3.89562 19.503 4.01304 19.6875 4.12776L19.3108 4.50979C19.1075 4.71542 19.1075 5.04902 19.3105 5.25465ZM13.9766 1.23843C14.0385 1.13859 14.1162 1.08637 14.2359 1.06419C14.6778 0.981667 15.4124 1.32284 15.9833 1.67647C15.4888 2.18675 14.7766 2.85341 13.991 3.4454C13.3849 2.71218 13.403 2.16159 13.9766 1.23843ZM4.06796 3.80714C4.51257 2.82987 5.42287 2.14806 6.44425 2.02793C6.53878 2.01684 6.63224 2.01088 6.72223 2.01088C6.89873 2.01088 7.29848 2.74789 7.51317 3.14372C7.86885 3.79984 8.2985 4.5915 8.93002 5.16157C8.279 5.51953 7.51183 5.59177 6.80367 5.35746L3.81669 4.36964C3.8976 4.18593 3.98065 3.99951 4.06796 3.80714ZM2.77795 6.97704C3.65514 7.19701 5.715 7.74084 7.8814 8.50815C7.93828 8.52817 7.99595 8.53764 8.05283 8.53764C8.26779 8.53764 8.46886 8.40182 8.54363 8.18456C8.63816 7.91021 8.49556 7.60962 8.22453 7.51357C6.11394 6.76628 4.10134 6.2265 3.14511 5.98408C3.22602 5.77683 3.31174 5.56228 3.4028 5.34096L6.48083 6.35881C6.86082 6.48462 7.25281 6.54658 7.64294 6.54658C8.3236 6.54658 8.99864 6.358 9.59332 5.98976L9.94393 5.77277C10.2192 5.8672 10.522 5.92104 10.8572 5.92104C13.1787 5.92104 15.9347 3.2441 16.8557 2.27603C17.3249 2.598 17.7866 2.90644 18.2392 3.20271L12.6887 9.46107C11.9765 9.06037 11.1407 8.66102 10.1781 8.2614C9.91242 8.15128 9.60881 8.28007 9.50012 8.54928C9.39118 8.81849 9.51828 9.12584 9.78398 9.23623C13.0212 10.5801 14.1937 11.6808 14.5779 12.4218C9.012 11.7213 3.37209 10.9137 2.09916 10.73C1.93547 10.2108 2.06979 9.00734 2.77795 6.97704ZM31.6929 14.977C30.5796 15.6023 29.0704 15.9467 27.4426 15.9467H8.78956C4.40629 15.9467 1.95684 14.5952 1.15682 14.0585L2.08581 11.7922C4.95877 12.2073 21.5655 14.5796 25.8348 14.5796C25.9363 14.5796 26.0372 14.5787 26.1373 14.5774C26.4244 14.5731 26.6538 14.3339 26.6498 14.0433C26.6455 13.7549 26.4137 13.5241 26.1301 13.5241C26.1275 13.5241 26.1251 13.5241 26.1227 13.5241C26.0273 13.5254 25.9315 13.526 25.8348 13.526C24.9774 13.526 23.584 13.4245 21.8884 13.2598C22.1057 12.9029 22.5148 12.4075 23.1343 11.8839C23.9656 11.1813 24.8615 10.6873 25.6132 10.5044C25.7798 10.8953 26.0412 11.1959 26.3953 11.401C26.7667 11.6161 27.2047 11.7005 27.6712 11.7005C28.5069 11.7005 29.4335 11.4294 30.2298 11.1526C31.4379 10.733 32.9161 10.1515 33.5789 9.88774C33.9092 10.3742 33.9922 10.9792 33.9487 11.4289C33.9097 11.829 33.7714 12.1648 33.5832 12.3247C33.188 12.4616 31.0867 13.1513 28.159 13.4186C27.873 13.4448 27.6621 13.7008 27.688 13.9905C27.7139 14.2803 27.9678 14.4938 28.2525 14.4678C30.4365 14.2684 32.1626 13.849 33.1354 13.5682C32.82 14.2516 32.1428 14.7243 31.6929 14.977Z" fill="black"/>
</svg>
